<svg xmlns="http://www.w3.org/2000/svg" xmlns:xlink="http://www.w3.org/1999/xlink" version="1.1" x="0px" y="0px" viewBox="0 0 164 205" enable-background="new 0 0 164 164" xml:space="preserve"><path fill-rule="evenodd" clip-rule="evenodd" fill="#000000" d="M85.784,133.611h19.273v-19.274H85.784V133.611L85.784,133.611z   M58.624,133.611h19.273v-19.274H58.624V133.611L58.624,133.611z M31.462,133.611h19.273v-19.274H31.462V133.611L31.462,133.611z   M112.945,107.399h19.273V88.126h-19.273V107.399L112.945,107.399z M85.784,107.399h19.273V88.126H85.784V107.399L85.784,107.399z   M58.624,107.399h19.273V88.126H58.624V107.399L58.624,107.399z M31.462,107.399h19.273V88.126H31.462V107.399L31.462,107.399z   M112.945,81.188h19.273V61.914h-19.273V81.188L112.945,81.188z M85.784,81.188h19.273V61.914H85.784V81.188L85.784,81.188z   M58.624,81.188h19.273V61.914H58.624V81.188L58.624,81.188z M31.462,81.188h19.273V61.914H31.462V81.188L31.462,81.188z   M22.728,0.32h7.754v10.925c-3.381,1.463-5.708,3.817-5.708,8.069c0,4.252,4.111,9.138,9.744,9.138  c5.633,0,10.654-4.844,10.654-9.138c0-4.293-2.437-6.75-5.947-8.169V0.32h21.851v10.64c-3.771,1.32-5.981,3.978-5.981,8.354  c0,4.377,4.717,8.986,10.351,8.986c5.632,0,9.667-4.669,9.667-8.834c0-4.166-2.179-6.912-5.293-8.45V0.32h20.635v11.405  c-2.848,1.594-5.191,3.512-5.191,7.589s3.808,9.138,10.047,8.986c6.239-0.152,9.972-3.087,10.275-8.076  c0.304-4.988-2.363-7.687-6.388-8.89V0.32h25.251v10.35c-3.896,1.145-5.573,4.108-5.573,8.645s4.566,8.986,10.199,8.986  s9.743-4.547,9.743-8.986c0-4.438-1.992-8.093-5.626-8.283V0.32h7.762c10.097,0,18.357,8.26,18.357,18.356v91.996h-14.571V47.918  H19.429v99.083h96.813l-0.012-29.626l43.069-0.031c-4.489,24.433-14.908,38.507-41.243,46.656H22.728  c-10.096,0-18.357-8.261-18.357-18.357V18.676C4.371,8.58,12.632,0.32,22.728,0.32z"/><text x="0" y="179" fill="#000000" font-size="5px" font-weight="bold" font-family="'Helvetica Neue', Helvetica, Arial-Unicode, Arial, Sans-serif">Created by Aleksandr Vector</text><text x="0" y="184" fill="#000000" font-size="5px" font-weight="bold" font-family="'Helvetica Neue', Helvetica, Arial-Unicode, Arial, Sans-serif">from the Noun Project</text></svg>