<svg xmlns="http://www.w3.org/2000/svg" data-name="Layer 1" viewBox="0 0 100 125" x="0px" y="0px"><title>Artboard 11</title><path d="M4.22,76.5a5.87,5.87,0,0,1,5.86-5.86h13A5.87,5.87,0,0,1,29,76.5V91.15A5.87,5.87,0,0,1,23.1,97h-13a5.87,5.87,0,0,1-5.86-5.86ZM56.51,55h-13a5.87,5.87,0,0,0-5.86,5.86V91.15A5.87,5.87,0,0,0,43.49,97h13a5.87,5.87,0,0,0,5.86-5.86V60.81A5.87,5.87,0,0,0,56.51,55ZM95.78,8.84V91.15A5.87,5.87,0,0,1,89.92,97h-13A5.87,5.87,0,0,1,71,91.15V8.84A5.87,5.87,0,0,1,76.9,3h13A5.87,5.87,0,0,1,95.78,8.84Zm-8.17,2.31h-8.4V88.85h8.4ZM4.22,25.06A22.08,22.08,0,1,1,26.3,47.14,22.08,22.08,0,0,1,4.22,25.06Zm19.39,1.11,9.55,9.55,3.8-3.8-8-8V11.86H23.61Z"/><text x="0" y="115" fill="#000000" font-size="5px" font-weight="bold" font-family="'Helvetica Neue', Helvetica, Arial-Unicode, Arial, Sans-serif">Created by Gregor Cresnar</text><text x="0" y="120" fill="#000000" font-size="5px" font-weight="bold" font-family="'Helvetica Neue', Helvetica, Arial-Unicode, Arial, Sans-serif">from the Noun Project</text></svg>