<svg xmlns="http://www.w3.org/2000/svg" xmlns:xlink="http://www.w3.org/1999/xlink" version="1.1" x="0px" y="0px" viewBox="0 0 100 125" style="enable-background:new 0 0 100 100;" xml:space="preserve"><g><rect x="31.5" y="39.3" transform="matrix(0.7071 -0.7071 0.7071 0.7071 -16.2836 47.3404)" width="35" height="8.1"/><polygon points="32.1,56.8 31.7,60.2 35.3,60  "/><path d="M18,15.7v68.6c0,2.6,2.1,4.7,4.7,4.7h54.6c2.6,0,4.7-2.1,4.7-4.7V26.4V15.8c0-2.7-2.2-4.8-4.8-4.8H56.7h-34   C20.1,11,18,13.1,18,15.7z M28.4,53.4c0.1-0.7,0.4-1.3,0.8-1.7l32.8-32.8c1.2-1.2,3-1.1,4.2,0l7.2,7.2c1.2,1.2,1.2,3,0,4.2L40.7,63   c-0.5,0.5-1.2,0.8-2,0.9l-7.2,0.3c0,0-0.1,0-0.1,0c-1,0-2-0.4-2.7-1.2c-0.7-0.8-1.1-1.8-1-2.9L28.4,53.4z"/><rect x="63.6" y="22.6" transform="matrix(0.7071 -0.7071 0.7071 0.7071 0.3205 54.2204)" width="4" height="8.1"/></g><text x="0" y="115" fill="#000000" font-size="5px" font-weight="bold" font-family="'Helvetica Neue', Helvetica, Arial-Unicode, Arial, Sans-serif">Created by Besticons</text><text x="0" y="120" fill="#000000" font-size="5px" font-weight="bold" font-family="'Helvetica Neue', Helvetica, Arial-Unicode, Arial, Sans-serif">from the Noun Project</text></svg>