<?xml version="1.0" standalone="no"?>
<!DOCTYPE svg PUBLIC "-//W3C//DTD SVG 20010904//EN"
 "http://www.w3.org/TR/2001/REC-SVG-20010904/DTD/svg10.dtd">
<svg version="1.0" xmlns="http://www.w3.org/2000/svg"
 width="260.000000pt" height="260.000000pt" viewBox="0 0 260.000000 260.000000"
 preserveAspectRatio="xMidYMid meet">
<metadata>
Created by potrace 1.11, written by Peter Selinger 2001-2013
</metadata>
<g transform="translate(0.000000,260.000000) scale(0.100000,-0.100000)"
fill="#000000" stroke="none">
<path d="M1467 1938 c-114 -291 -437 -1141 -434 -1144 7 -7 87 -10 97 -4 8 5
127 307 371 943 43 114 79 209 79 212 0 12 -108 4 -113 -7z"/>
<path d="M1684 1651 l1 -56 307 -155 c170 -85 308 -158 308 -161 0 -3 -139
-75 -309 -159 l-309 -153 -1 -54 c0 -29 4 -53 10 -53 5 0 137 65 292 145 155
80 319 164 365 187 l82 42 0 45 0 46 -142 73 c-79 39 -247 125 -374 191 l-231
118 1 -56z"/>
<path d="M665 1575 c-132 -69 -295 -153 -362 -187 l-123 -63 0 -45 0 -45 118
-61 c64 -33 225 -116 357 -184 132 -67 245 -127 251 -132 15 -11 20 5 20 62
l-1 45 -307 155 c-170 85 -308 157 -308 160 0 3 138 75 307 160 l308 155 1 53
c1 33 -3 52 -10 51 -6 0 -119 -56 -251 -124z"/>
</g>
</svg>
