<svg xmlns="http://www.w3.org/2000/svg" xmlns:xlink="http://www.w3.org/1999/xlink" version="1.1" x="0px" y="0px" viewBox="0 0 100 125" enable-background="new 0 0 100 100" xml:space="preserve"><g><g><path fill="#000000" d="M36.535,38.934c0.763,0.763,1.199,1.799,1.199,2.889c0,1.09-0.436,2.126-1.199,2.889    c-0.763,0.763-1.799,1.199-2.889,1.199s-2.126-0.436-2.889-1.199s-1.199-1.799-1.199-2.889c0-1.09,0.436-2.126,1.199-2.889    c0.763-0.763,1.799-1.199,2.889-1.199S35.772,38.171,36.535,38.934z"/><path fill="#000000" d="M36.535,71.696c0.763,0.763,1.199,1.853,1.199,2.889c0,1.09-0.436,2.18-1.199,2.889    c-0.763,0.763-1.799,1.199-2.889,1.199s-2.126-0.436-2.889-1.199c-0.763-0.709-1.199-1.799-1.199-2.889    c0-1.036,0.436-2.126,1.199-2.889c0.763-0.763,1.799-1.199,2.889-1.199S35.772,70.933,36.535,71.696z"/><path fill="#000000" d="M36.535,55.342c0.763,0.763,1.199,1.799,1.199,2.889c0,1.036-0.436,2.126-1.199,2.889    c-0.763,0.763-1.799,1.199-2.889,1.199s-2.126-0.436-2.889-1.199s-1.199-1.853-1.199-2.889c0-1.09,0.436-2.126,1.199-2.889    c0.763-0.763,1.799-1.199,2.889-1.199S35.772,54.579,36.535,55.342z"/><path fill="#000000" d="M66.354,54.143c2.235,0,4.088,1.799,4.088,4.088c0,2.235-1.853,4.088-4.088,4.088H46.348    c-2.235,0-4.088-1.853-4.088-4.088c0-2.29,1.853-4.088,4.088-4.088H66.354z"/><path fill="#000000" d="M66.354,70.497c2.235,0,4.088,1.853,4.088,4.088c0,2.29-1.853,4.088-4.088,4.088H46.348    c-2.235,0-4.088-1.799-4.088-4.088c0-2.235,1.853-4.088,4.088-4.088H66.354z"/><path fill="#000000" d="M86.796,20.509v58.982c0,8.558-6.923,15.482-15.482,15.482H28.686c-8.558,0-15.482-6.923-15.482-15.482    V20.509c0-8.558,6.923-15.482,15.482-15.482h42.629C79.873,5.027,86.796,11.95,86.796,20.509z M78.619,79.491V20.509    c0-4.034-3.271-7.305-7.305-7.305H28.686c-4.034,0-7.305,3.271-7.305,7.305v58.982c0,4.034,3.271,7.305,7.305,7.305h42.629    C75.348,86.796,78.619,83.525,78.619,79.491z"/><path fill="#000000" d="M66.354,21.326c2.235,0,4.088,1.853,4.088,4.088s-1.853,4.088-4.088,4.088H46.348    c-2.235,0-4.088-1.853-4.088-4.088s1.853-4.088,4.088-4.088H66.354z"/><path fill="#000000" d="M66.354,37.735c2.235,0,4.088,1.799,4.088,4.088c0,2.235-1.853,4.088-4.088,4.088H46.348    c-2.235,0-4.088-1.853-4.088-4.088c0-2.29,1.853-4.088,4.088-4.088H66.354z"/><path fill="#000000" d="M36.535,22.526c0.763,0.763,1.199,1.799,1.199,2.889s-0.436,2.126-1.199,2.889    c-0.763,0.763-1.799,1.199-2.889,1.199s-2.126-0.436-2.889-1.199s-1.199-1.799-1.199-2.889s0.436-2.126,1.199-2.889    s1.799-1.199,2.889-1.199S35.772,21.763,36.535,22.526z"/></g></g><text x="0" y="115" fill="#000000" font-size="5px" font-weight="bold" font-family="'Helvetica Neue', Helvetica, Arial-Unicode, Arial, Sans-serif">Created by Viktor Ostrovsky</text><text x="0" y="120" fill="#000000" font-size="5px" font-weight="bold" font-family="'Helvetica Neue', Helvetica, Arial-Unicode, Arial, Sans-serif">from the Noun Project</text></svg>