<svg xmlns="http://www.w3.org/2000/svg" xmlns:xlink="http://www.w3.org/1999/xlink" viewBox="0 0 100 125" version="1.1" x="0px" y="0px"><title>7.6</title><desc>Created with Sketch.</desc><g stroke="none" stroke-width="1" fill="none" fill-rule="evenodd"><g fill="#000000"><path d="M46,47 L36,47 L36,47 C34.3431458,47 33,48.3431458 33,50 L33,50 L33,50 C33,51.6568542 34.3431458,53 36,53 L46,53 L46,53 C46.5522847,53 47,53.4477153 47,54 L47,64 L47,64 C47,65.6568542 48.3431458,67 50,67 L50,67 L50,67 C51.6568542,67 53,65.6568542 53,64 L53,54 L53,54 C53,53.4477153 53.4477153,53 54,53 L64,53 L64,53 C65.6568542,53 67,51.6568542 67,50 L67,50 L67,50 C67,48.3431458 65.6568542,47 64,47 L54,47 L54,47 C53.4477153,47 53,46.5522847 53,46 L53,36 L53,36 C53,34.3431458 51.6568542,33 50,33 L50,33 L50,33 C48.3431458,33 47,34.3431458 47,36 L47,46 L47,46 C47,46.5522847 46.5522847,47 46,47 Z"/><path d="M50,78 C65.463973,78 78,65.463973 78,50 C78,34.536027 65.463973,22 50,22 C34.536027,22 22,34.536027 22,50 C22,65.463973 34.536027,78 50,78 Z M50,84 C31.2223185,84 16,68.7776815 16,50 C16,31.2223185 31.2223185,16 50,16 C68.7776815,16 84,31.2223185 84,50 C84,68.7776815 68.7776815,84 50,84 Z" fill-rule="nonzero"/></g></g><text x="0" y="115" fill="#000000" font-size="5px" font-weight="bold" font-family="'Helvetica Neue', Helvetica, Arial-Unicode, Arial, Sans-serif">Created by Landan Lloyd</text><text x="0" y="120" fill="#000000" font-size="5px" font-weight="bold" font-family="'Helvetica Neue', Helvetica, Arial-Unicode, Arial, Sans-serif">from the Noun Project</text></svg>