<?xml version="1.0" encoding="iso-8859-1"?>
<!-- Generator: Adobe Illustrator 14.0.0, SVG Export Plug-In . SVG Version: 6.00 Build 43363)  -->
<!DOCTYPE svg PUBLIC "-//W3C//DTD SVG 1.1//EN" "http://www.w3.org/Graphics/SVG/1.1/DTD/svg11.dtd">
<svg version="1.1" id="Layer_1" xmlns="http://www.w3.org/2000/svg" xmlns:xlink="http://www.w3.org/1999/xlink" x="0px" y="0px"
	 width="250px" height="118px" viewBox="0 0 250 118" style="enable-background:new 0 0 250 118;" xml:space="preserve">
<g>
	<path style="fill:#003974;" d="M202.747,69.848v40.72h11.561v2.729h-44.967v-2.729h7.424V29.999h-7.424v-2.607H245v27.312h-4.855
		c-6.852-20.235-8.706-24.581-16.985-24.581h-20.412v36.992"/>
	<g>
		<path style="fill:none;stroke:#003876;stroke-width:0.2287;" d="M202.747,69.848v40.72h11.561v2.729h-44.967v-2.729h7.424V29.999
			h-7.424v-2.607H245v27.312h-4.855c-6.852-20.235-8.706-24.581-16.985-24.581h-20.412v36.992"/>
	</g>
	<path style="fill:#003974;" d="M78.222,90.417v-2.694h7.354l35.001-83.094h16.616l32.353,83.094h6.327v2.694h-45.594v-2.694h12.207
		l-11.323-31.131l-13.381-36.153l-28.09,67.284h12.646v2.694H78.222 M117.781,20.438h-0.293"/>
	<g>
		<line style="fill:none;stroke:#003876;stroke-width:0.9124;" x1="117.781" y1="20.438" x2="117.488" y2="20.438"/>
		<polygon style="fill:none;stroke:#003876;stroke-width:0.9124;" points="78.222,90.417 78.222,87.718 85.575,87.718 
			120.576,4.626 137.192,4.626 169.545,87.718 175.872,87.718 175.872,90.417 130.278,90.417 130.278,87.718 142.485,87.718 
			131.162,56.592 117.781,20.438 89.691,87.718 102.338,87.718 102.338,90.417 		"/>
	</g>
	<path style="fill:#003974;" d="M5.495,113.374v-2.694h7.354l35-83.095h16.617l32.355,83.095h6.322v2.694H57.555v-2.694h12.206
		L58.438,79.551L45.167,42.728L16.965,110.68h12.649v2.694H5.495 M45.055,43.393h-0.293"/>
	<g>
		<line style="fill:none;stroke:#003876;stroke-width:0.9124;" x1="45.055" y1="43.393" x2="44.762" y2="43.393"/>
		<polygon style="fill:none;stroke:#003876;stroke-width:0.9124;" points="5.495,113.374 5.495,110.675 12.849,110.675 
			47.849,27.583 64.466,27.583 96.819,110.675 103.144,110.675 103.144,113.374 57.555,113.374 57.555,110.675 69.761,110.675 
			58.438,79.546 45.167,42.728 16.965,110.675 29.614,110.675 29.614,113.374 		"/>
	</g>
	<path style="fill:#EC1B2E;" d="M5,79.458c25.299-6.642,127.07-29.442,215.091,2.326l22.903-3.418
		C113.712,36.898,20.889,71.579,5,78.832V79.458"/>
	<path style="fill:none;stroke:#EC1B2E;stroke-width:0.2287;" d="M5,79.458c25.299-6.642,127.07-29.442,215.091,2.326l22.903-3.418
		C113.712,36.898,20.889,71.579,5,78.832V79.458z"/>
</g>
</svg>
